<svg width="119" height="45" viewBox="0 0 119 45" fill="none" xmlns="http://www.w3.org/2000/svg">
<path d="M62.6809 44.2987C62.0643 44.1339 61.9079 43.9736 61.8406 43.4369C61.7901 43.037 62.021 42.1318 62.225 41.928C62.2705 41.8804 62.3072 41.827 62.3072 41.8032C62.3072 41.7805 62.3634 41.6959 62.4322 41.6172C62.7465 41.2593 62.8072 41.1719 62.8072 41.0779C62.8072 40.9562 62.4774 40.7728 62.1636 40.7199C62.0214 40.6972 61.8479 40.6024 61.6803 40.4587L61.4187 40.2354V39.8454C61.4187 39.4554 61.4459 39.3652 61.7381 38.7445C61.9113 38.3779 62.3573 37.6794 62.4577 37.6172C62.497 37.5945 62.529 37.5504 62.529 37.5228C62.529 37.4079 63.2594 36.801 63.3978 36.801C63.4394 36.801 63.4729 36.7783 63.4729 36.7454C63.4729 36.7152 63.5114 36.6898 63.5581 36.6898C63.6056 36.6898 63.6985 36.6596 63.7662 36.6123C63.8666 36.5488 63.9352 36.5471 64.1391 36.5973C64.401 36.6665 64.5237 36.748 64.8773 37.0873C65.1296 37.3296 65.1212 37.4223 64.8181 37.7436C64.7096 37.8585 64.5685 38.0781 64.5048 38.2315C64.3797 38.5316 63.9697 38.9252 63.8358 38.8737C63.7932 38.8586 63.6941 38.7118 63.6147 38.5489C63.5227 38.3603 63.4262 38.2421 63.3468 38.2213C63.1917 38.1786 62.8039 38.3637 62.7039 38.5247C62.6396 38.6286 62.6426 38.6576 62.7311 38.7422C62.8466 38.8526 63.4681 39.1851 63.5588 39.1851C63.637 39.1851 63.8689 39.4413 64.0185 39.6915C64.1727 39.95 64.1739 40.3068 64.0185 40.6728C63.8994 40.9593 63.6972 41.222 63.2389 41.686C62.9302 41.9982 62.8537 42.2401 63.017 42.3886C63.2247 42.578 63.281 42.6127 63.4997 42.6883C63.943 42.8418 65.6638 42.7187 66.3779 42.4904C66.9282 42.3109 67.5979 42.1482 67.9671 42.1042C68.2456 42.074 68.6779 41.8925 69.5966 41.4309C69.7446 41.3568 69.9008 41.2959 69.9438 41.2959C69.9864 41.2959 70.022 41.2771 70.022 41.2484C70.022 41.2257 70.1233 41.1683 70.2469 41.1275C70.3705 41.0848 70.4841 41.0334 70.4995 41.0085C70.5146 40.9858 70.682 40.887 70.8715 40.7932C71.061 40.6995 71.316 40.5634 71.4381 40.4901C71.9096 40.207 72.0054 40.1715 72.128 40.2373C72.3274 40.3442 72.2702 40.5338 71.9518 40.8216C71.7915 40.9664 71.604 41.1111 71.5353 41.1432C71.4671 41.1734 71.4105 41.2228 71.4105 41.2481C71.4105 41.2708 71.378 41.2959 71.3383 41.2959C71.299 41.2959 71.2357 41.3223 71.1994 41.3623C71.1203 41.4413 70.7003 41.6795 69.9667 42.0618C69.6766 42.213 69.3069 42.4148 69.1452 42.5105C68.9834 42.6061 68.8411 42.6844 68.8289 42.6844C68.8172 42.6844 68.6614 42.7693 68.4842 42.8729C68.2963 42.9828 68.0461 43.0771 67.8842 43.0982C67.4379 43.1572 67.0656 43.2496 66.8569 43.3531C66.7499 43.4064 66.5625 43.4923 66.4403 43.5437C66.3183 43.5951 66.1362 43.6723 66.0358 43.7158C65.9357 43.7585 65.798 43.7943 65.7304 43.7947C65.6622 43.7947 65.5359 43.8341 65.4484 43.8779C65.3606 43.9256 65.2361 43.9615 65.1708 43.9626C65.1056 43.9626 64.8773 44.0155 64.6635 44.0775C64.4497 44.1395 64.1372 44.2171 63.9693 44.2489C63.8012 44.2791 63.6401 44.3291 63.6111 44.3559C63.5281 44.4334 63.0887 44.4047 62.6775 44.2955L62.6809 44.2987ZM77.6063 43.6334C77.545 43.607 77.3883 43.5821 77.2575 43.5794C77.1264 43.5794 76.9299 43.5367 76.8203 43.4925C76.7106 43.4449 76.5869 43.4094 76.5451 43.4094C76.4306 43.4094 75.8034 42.798 75.7663 42.6502C75.7482 42.5788 75.7131 42.5204 75.6872 42.5204C75.66 42.5204 75.5663 42.4125 75.4758 42.2814C75.3405 42.0856 75.3047 41.9631 75.2744 41.6011C75.223 40.9879 75.3435 37.9789 75.4412 37.4391C75.4857 37.1942 75.5221 36.9051 75.5221 36.7955C75.5227 36.6855 75.5605 36.4732 75.6072 36.3237C75.6535 36.1737 75.704 35.8508 75.7202 35.6068C75.7508 35.142 75.8231 34.6953 75.9247 34.3433C75.9711 34.1849 76.0137 34.135 76.106 34.135C76.3403 34.135 76.4195 34.5752 76.297 35.1966C76.2645 35.3614 76.2139 35.7082 76.1842 35.9678C76.154 36.2271 76.106 36.5896 76.0769 36.7729C76.0466 36.9562 75.9999 37.556 75.9698 38.1058C75.9396 38.6555 75.9016 39.1929 75.8847 39.2998C75.8455 39.5485 75.9918 40.3752 76.1039 40.5351C76.1514 40.6024 76.1899 40.7044 76.1899 40.7626C76.1899 40.902 76.882 41.5825 77.1503 41.7079C77.5895 41.9135 78.4486 41.7961 79.1313 41.4378C79.2699 41.3648 79.4205 41.2907 79.4665 41.2726C79.7058 41.1774 80.1003 40.877 80.3734 40.5815C80.4702 40.4768 80.5908 40.3479 80.6413 40.295C80.6918 40.242 80.8503 40.0281 80.993 39.8188C81.2549 39.4359 81.6968 38.8732 81.9795 38.5625C82.0634 38.4703 82.1322 38.3737 82.1322 38.3468C82.1322 38.3204 82.3758 38.0504 82.6737 37.7471C82.9714 37.4439 83.2834 37.1187 83.367 37.0255C83.45 36.9321 83.538 36.8562 83.5615 36.8562C83.5857 36.8562 83.7468 36.7251 83.921 36.5648C84.0951 36.4042 84.3059 36.2231 84.389 36.162C84.4721 36.1008 84.6392 35.9684 84.7605 35.8679C84.882 35.767 85.0329 35.6575 85.0966 35.6231C85.1598 35.5929 85.2458 35.5275 85.287 35.4864C85.3286 35.4436 85.3973 35.4114 85.4409 35.4114C85.4845 35.4114 85.52 35.3887 85.52 35.3558C85.52 35.3293 85.5503 35.3002 85.5853 35.3002C85.6204 35.3002 85.6899 35.27 85.738 35.225C85.7864 35.1823 85.9383 35.0913 86.0756 35.0188C86.213 34.9462 86.363 34.8574 86.4088 34.8215C86.5552 34.7055 87.9989 33.9812 88.6164 33.7135C88.9446 33.5711 89.2382 33.4358 89.2688 33.4127C89.2994 33.3901 89.4167 33.3408 89.5297 33.3045C89.6425 33.2652 89.8866 33.1648 90.072 33.0752C90.2575 32.9853 90.4463 32.9119 90.4915 32.9119C90.537 32.9119 90.5737 32.893 90.5737 32.8628C90.5737 32.8363 90.6368 32.7978 90.715 32.7781C90.7932 32.7592 91.0363 32.6586 91.2564 32.5574C91.8558 32.2792 92.1931 32.1354 92.2452 32.1354C92.2996 32.1354 93.6418 31.5147 93.6838 31.4704C93.6989 31.4553 93.7993 31.3978 93.906 31.346C94.0128 31.2939 94.2253 31.1757 94.378 31.0842C94.5308 30.9924 94.8432 30.8256 95.0722 30.7137C95.3014 30.6015 95.6582 30.401 95.8653 30.2678C96.0725 30.1344 96.2503 30.0254 96.2606 30.0254C96.3198 30.0254 97.0948 29.4729 97.3759 29.2297C97.8467 28.8228 98.2377 28.4297 98.2377 28.3637C98.2377 28.3373 98.2831 28.2833 98.3384 28.2535C98.4635 28.1866 98.5913 27.8015 98.514 27.7245C98.4838 27.6981 98.4596 27.6187 98.4596 27.5552C98.4596 27.4263 98.1689 26.8363 98.0209 26.6655C97.9674 26.6042 97.8787 26.4796 97.8221 26.3877C97.6405 26.0921 97.1095 25.3944 96.8929 25.1665C96.7772 25.0448 96.6824 24.9215 96.6824 24.8936C96.6824 24.8671 96.4512 24.6136 96.1687 24.333C95.886 24.0529 95.5675 23.715 95.4606 23.5828C95.3536 23.4502 95.2059 23.2904 95.1322 23.2269C95.058 23.163 94.9461 23.0499 94.8824 22.9747C94.6196 22.6652 94.3699 22.395 94.2456 22.2845C93.9713 22.0408 93.8875 21.9474 93.4425 21.392C93.2946 21.2072 93.1385 21.0368 93.0954 21.0118C93.0518 20.9892 93.0172 20.9354 93.0172 20.8954C93.0172 20.856 92.9667 20.7785 92.9059 20.7226C92.8446 20.6678 92.7946 20.6002 92.7946 20.5733C92.7946 20.5469 92.7483 20.4751 92.6921 20.4139C92.5219 20.231 91.8487 18.819 91.8202 18.5848C91.8202 18.5372 91.7688 18.3438 91.7192 18.15C91.6687 17.9568 91.6283 17.6881 91.6283 17.553C91.6283 17.3489 91.6102 17.3075 91.5231 17.3075C91.4656 17.3075 91.4028 17.2684 91.3845 17.2196C91.3361 17.0926 91.3474 16.5147 91.4117 16.0023C91.489 15.3732 91.4899 15.369 91.5629 15.2962C91.6 15.2569 91.6282 15.1559 91.6282 15.0648C91.6282 14.88 91.7403 14.5305 91.7999 14.5305C91.8207 14.5305 91.8543 14.4689 91.8721 14.3933C91.8902 14.3181 91.956 14.2296 92.0171 14.1967C92.0784 14.1665 92.1274 14.1102 92.1274 14.0766C92.1274 14.0131 92.6499 13.4752 92.7114 13.4752C92.7296 13.4752 92.7805 13.4448 92.8236 13.4055C93.0151 13.2335 93.072 13.1972 93.1478 13.1972C93.1923 13.1972 93.2377 13.1783 93.2474 13.1545C93.2746 13.0971 93.5976 12.8729 93.751 12.8064C93.8201 12.78 93.9143 12.7304 93.96 12.7028C94.2183 12.549 95.8201 11.8662 95.9314 11.862C95.962 11.862 96.0869 11.8111 96.2089 11.7522C96.331 11.6928 96.4732 11.6441 96.525 11.6426C96.5764 11.6426 96.6317 11.6239 96.6473 11.5944C96.6625 11.5717 96.8149 11.5147 96.9845 11.4742C97.1544 11.4315 97.321 11.3667 97.3549 11.3259C97.3885 11.2832 97.4619 11.2518 97.5175 11.2518C97.5729 11.2518 97.6339 11.2291 97.6529 11.1962C97.671 11.166 97.7672 11.1406 97.8642 11.1406C97.9622 11.1406 98.3038 11.0549 98.6246 10.9494C98.9454 10.8443 99.4327 10.6924 99.7076 10.6119C99.9824 10.5314 100.257 10.4435 100.318 10.4163C100.38 10.3898 100.579 10.3311 100.763 10.288C100.946 10.2453 101.308 10.1475 101.568 10.0719C101.828 9.99592 102.29 9.8792 102.595 9.81306C102.901 9.74692 103.213 9.66477 103.29 9.63151C103.422 9.57406 103.635 9.52282 104.457 9.35123C104.656 9.30852 104.848 9.25743 104.884 9.23589C104.949 9.19318 105.331 9.10859 105.669 9.05757C105.771 9.04245 106.046 8.97774 106.28 8.915C106.514 8.85226 106.892 8.76562 107.121 8.72215C107.351 8.67944 107.7 8.60653 107.899 8.55929C108.097 8.51167 108.535 8.42584 108.871 8.36575C109.207 8.30603 109.656 8.21796 109.87 8.1692C110.224 8.08945 110.663 8.0154 111.675 7.86308C111.874 7.83663 112.136 7.78224 112.258 7.74936C112.576 7.6647 112.63 7.65682 113.358 7.5835C113.878 7.53096 114.085 7.53201 114.358 7.58719C114.547 7.62649 114.726 7.67907 114.755 7.70553C114.785 7.73198 114.841 7.75305 114.883 7.75305C115.01 7.75305 115.458 8.12851 115.562 8.32168C115.615 8.42222 115.677 8.63347 115.699 8.79251C115.733 9.03553 115.714 9.1409 115.588 9.45827C115.505 9.66614 115.417 9.84921 115.391 9.86542C115.364 9.88054 115.305 9.98174 115.258 10.0876C115.21 10.1934 115.148 10.3174 115.121 10.3635C115.09 10.4111 115 10.597 114.915 10.7799C114.83 10.9632 114.729 11.1466 114.69 11.1866C114.65 11.2293 114.618 11.2851 114.618 11.3157C114.618 11.3422 114.587 11.4035 114.549 11.4428C114.511 11.4821 114.285 11.7178 114.047 11.9663C113.809 12.2146 113.596 12.4184 113.575 12.4184C113.554 12.4184 113.39 12.5552 113.211 12.7215C113.032 12.8882 112.839 13.0396 112.78 13.0581C112.722 13.077 112.675 13.1129 112.675 13.1398C112.675 13.1662 112.619 13.2051 112.55 13.2263C112.481 13.2452 112.388 13.3013 112.342 13.3455C112.296 13.3882 112.133 13.4996 111.981 13.5896C111.828 13.6795 111.599 13.8337 111.472 13.9319C111.345 14.0306 111.135 14.1735 111.005 14.2503C110.875 14.3262 110.607 14.5205 110.41 14.681C110.212 14.8416 110.033 14.9723 110.01 14.9723C109.986 14.9723 109.908 15.0283 109.832 15.0971C109.546 15.356 109.343 15.5273 109.324 15.5273C109.293 15.5273 108.782 15.9853 108.682 16.1022C108.633 16.1581 108.513 16.2961 108.414 16.4076C108.315 16.5195 108.234 16.6415 108.233 16.6789C108.233 16.7182 108.209 16.7486 108.182 16.7486C108.155 16.7486 108.08 16.8299 108.015 16.9285C107.745 17.3483 107.681 17.4449 107.638 17.4978C107.614 17.5281 107.534 17.6658 107.462 17.8037C107.286 18.1367 107.035 18.3587 106.836 18.3587C106.689 18.3587 106.677 18.3437 106.677 18.1438C106.677 18.013 106.721 17.8734 106.788 17.7876C106.849 17.7097 106.899 17.6334 106.899 17.6171C106.899 17.5778 107.247 17.0091 107.292 16.9698C107.31 16.9547 107.34 16.9048 107.36 16.8591C107.412 16.7396 107.618 16.4145 107.84 16.1015C107.945 15.953 108.154 15.6477 108.304 15.4235C108.453 15.199 108.656 14.9369 108.754 14.8406C108.851 14.7446 108.998 14.5742 109.08 14.4627C109.329 14.1226 110.298 13.1935 110.403 13.1935C110.431 13.1935 110.453 13.1709 110.453 13.1407C110.453 13.0832 111.131 12.5826 111.209 12.5824C111.237 12.5824 111.345 12.5065 111.452 12.4136C111.559 12.321 111.734 12.2041 111.841 12.1538C111.948 12.1039 112.078 12.0201 112.13 11.9672C112.182 11.9143 112.444 11.7263 112.713 11.5487C112.982 11.3715 113.214 11.2104 113.23 11.1912C113.245 11.1723 113.298 11.1339 113.347 11.1063C113.547 10.9933 114.174 10.3873 114.174 10.3074C114.174 10.2598 114.092 10.1856 113.993 10.1418C113.731 10.0254 112.648 10.0307 112.119 10.1494C111.89 10.2016 111.54 10.2717 111.341 10.3053C110.889 10.3828 110.287 10.5122 109.925 10.6101C109.773 10.6528 109.362 10.736 109.013 10.7988C108.664 10.8611 108.364 10.9347 108.347 10.963C108.329 10.9895 108.128 11.0314 107.898 11.053C107.669 11.0719 107.409 11.1278 107.321 11.1702C107.232 11.2129 107.098 11.2484 107.023 11.2484C106.949 11.2484 106.809 11.2787 106.713 11.3263C106.617 11.3691 106.413 11.4178 106.26 11.4341C106.107 11.4492 105.857 11.501 105.705 11.5471C105.552 11.5947 105.14 11.6982 104.788 11.7806C104.437 11.863 104.1 11.956 104.039 11.9877C103.924 12.0471 103.669 12.1102 103.233 12.1884C103.096 12.2111 102.879 12.2719 102.751 12.3199C102.623 12.3683 102.261 12.4613 101.947 12.5271C101.633 12.5932 101.275 12.6926 101.152 12.7474C101.029 12.8022 100.704 12.9039 100.429 12.9727C100.154 13.0415 99.8042 13.1538 99.6514 13.2214C99.4987 13.2898 99.2809 13.3619 99.1673 13.3815C99.0539 13.4004 98.9237 13.4546 98.878 13.4996C98.8257 13.5522 98.7448 13.5698 98.66 13.5483C98.5857 13.5294 98.5081 13.5446 98.4877 13.5748C98.4669 13.6051 98.3707 13.6353 98.2733 13.6364C98.1753 13.6364 98.0475 13.6756 97.9883 13.7195C97.929 13.7671 97.8124 13.8007 97.7294 13.8007C97.5742 13.8007 96.9519 14.0142 96.9018 14.0849C96.8626 14.1397 96.2824 14.3564 96.1729 14.3564C96.1236 14.3564 95.9357 14.4205 95.7565 14.4999C95.5772 14.5789 95.3805 14.6635 95.3193 14.6881C95.258 14.7108 95.0499 14.8106 94.8563 14.9059C94.6627 15.0004 94.4579 15.0782 94.401 15.0782C94.3436 15.0782 94.2302 15.1406 94.1479 15.2173C94.0658 15.2933 93.9629 15.3569 93.9197 15.3569C93.8307 15.3569 93.3659 15.6047 93.2324 15.7234C93.184 15.7661 93.1154 15.8009 93.0796 15.8009C93.0445 15.8009 93.0144 15.8236 93.0144 15.8531C93.0144 15.8795 92.9146 15.9612 92.7922 16.03C92.6701 16.0988 92.5706 16.1935 92.5709 16.2415C92.5717 16.3474 92.7014 16.7283 92.754 16.7811C92.7748 16.8 92.7914 16.8661 92.7914 16.9239C92.7914 17.0316 92.9902 17.4332 93.1072 17.562C93.1442 17.6013 93.1902 17.6903 93.2121 17.7587C93.2329 17.8275 93.3234 17.9704 93.4111 18.0778C93.4989 18.1847 93.6397 18.3563 93.723 18.4591C93.8061 18.5623 93.929 18.7053 93.9957 18.7774C94.0619 18.8493 94.184 18.996 94.2661 19.1041C94.3482 19.2118 94.4435 19.2997 94.4783 19.2997C94.5127 19.2997 94.5968 19.3813 94.6651 19.4803C94.8666 19.7732 95.0954 20.0215 95.164 20.0215C95.1984 20.0215 95.2431 20.0692 95.2618 20.1274C95.2988 20.2415 95.6174 20.5983 96.4687 21.4753C96.7652 21.7807 97.04 22.1035 97.0796 22.1927C97.1189 22.2823 97.2014 22.37 97.2627 22.3886C97.4218 22.4369 97.5683 22.5776 97.5683 22.6838C97.5683 22.7337 97.6681 22.8569 97.7905 22.9586C97.9126 23.0595 98.0127 23.1899 98.0127 23.2481C98.0127 23.3063 98.0399 23.354 98.0701 23.354C98.1019 23.354 98.1483 23.4102 98.175 23.4797C98.2023 23.5489 98.3257 23.7355 98.4514 23.8947C98.5767 24.0534 98.6799 24.2096 98.6799 24.241C98.6799 24.2712 98.7304 24.3287 98.7909 24.3669C98.8522 24.4062 98.9022 24.4678 98.9022 24.506C98.9022 24.5453 98.9264 24.5755 98.9536 24.5755C98.9839 24.5755 99.061 24.7569 99.1295 24.9782C99.1978 25.1997 99.2877 25.45 99.3295 25.5344C99.4224 25.7211 99.4347 27.4387 99.3476 27.7409C99.3159 27.8479 99.2655 28.1603 99.2345 28.4353C99.1019 29.6183 99.08 29.7368 98.9389 30.0249C98.5113 30.9002 97.9091 31.5762 97.029 32.1691C96.746 32.36 96.3911 32.5781 96.2401 32.6547C96.0892 32.7307 95.7208 32.9398 95.4215 33.1181C94.8862 33.4375 94.7926 33.4878 94.0723 33.8437C93.8738 33.9415 93.6114 34.0828 93.4892 34.1576C93.3671 34.2321 93.1897 34.3284 93.0948 34.3708C92.9998 34.4135 92.8636 34.5319 92.7914 34.6347C92.7193 34.7375 92.6405 34.8296 92.6164 34.8402C92.5922 34.8478 92.5729 34.8913 92.5729 34.9306C92.5729 34.9699 92.5355 35.0338 92.489 35.0727C92.4426 35.112 92.3648 35.2265 92.3161 35.3297C92.2677 35.4325 92.2051 35.5159 92.1784 35.5159C92.1512 35.5159 92.1291 35.5463 92.1291 35.592C92.1291 35.6347 92.092 35.699 92.0479 35.7364C91.9529 35.8154 91.6299 36.4432 91.6299 36.5489C91.6299 36.5882 91.5962 36.6407 91.5546 36.6649C91.513 36.6876 91.4344 36.8589 91.379 37.0425C91.3237 37.2259 91.2591 37.4013 91.2359 37.4326C91.1508 37.5464 91.0621 38.2531 91.0985 38.533C91.1329 38.801 91.4301 39.4031 91.5276 39.4031C91.5518 39.4031 91.6313 39.4612 91.7083 39.533C91.9206 39.7299 92.4632 39.8044 93.2137 39.7409C93.7299 39.6982 93.8908 39.6589 94.241 39.4968C94.9193 39.1831 95.3323 38.8376 96.5209 37.5902C96.8673 37.227 97.6514 36.5396 97.985 36.3071C98.1056 36.2236 98.2707 36.0864 98.3521 36.0017C98.433 35.9174 98.5385 35.8485 98.5854 35.8485C98.6318 35.8485 98.685 35.8093 98.7024 35.7655C98.7205 35.7179 98.7697 35.6824 98.8128 35.6824C98.8563 35.6824 98.9219 35.6431 98.9598 35.5996C99.0211 35.5248 99.4161 35.273 99.7698 35.0824C99.8441 35.0431 99.9042 34.9863 99.9042 34.9576C99.9042 34.9312 99.9284 34.9048 99.9575 34.9048C100.018 34.9048 101.195 34.2385 101.237 34.1805C101.256 34.1616 101.321 34.1249 101.39 34.1034C101.459 34.0845 101.515 34.0437 101.515 34.0187C101.515 33.9961 101.583 33.9563 101.668 33.9359C101.89 33.883 102.126 33.7733 102.126 33.7253C102.126 33.7026 102.159 33.6826 102.198 33.6826C102.238 33.6826 102.441 33.5953 102.65 33.4879C102.859 33.381 103.076 33.2935 103.133 33.2935C103.191 33.2935 103.237 33.2708 103.237 33.2379C103.237 33.2114 103.274 33.1823 103.319 33.1823C103.364 33.1823 103.495 33.1395 103.611 33.0912C103.935 32.9506 104.026 32.917 104.265 32.8489C104.503 32.7805 104.565 32.757 104.972 32.5767C105.117 32.5129 105.297 32.46 105.372 32.46C105.447 32.46 105.521 32.441 105.538 32.4116C105.556 32.3851 105.665 32.3476 105.784 32.3287C105.903 32.3098 106.072 32.2563 106.16 32.2102C106.248 32.1626 106.356 32.1267 106.4 32.1267C106.445 32.1267 106.695 32.0541 106.956 31.9657C107.217 31.878 107.618 31.7502 107.847 31.6833C108.076 31.6164 108.351 31.5275 108.458 31.4874C108.565 31.4447 108.815 31.3829 109.013 31.3451C109.211 31.3058 109.414 31.2561 109.464 31.2312C109.545 31.1884 111.361 30.7067 112.04 30.5451C112.192 30.5058 112.355 30.4642 112.401 30.4457C112.447 30.4268 112.646 30.3638 112.845 30.304C113.043 30.2439 113.312 30.1635 113.442 30.1246C113.572 30.0853 113.678 30.0346 113.678 30.0115C113.678 29.9888 113.559 29.9151 113.414 29.8482C113.269 29.7813 112.955 29.6293 112.716 29.5102C112.169 29.2377 111.648 29.0287 111.399 28.9815C111.161 28.9339 111.012 28.8132 111.013 28.6602C111.014 28.4735 111.208 27.9079 111.418 27.4752C111.526 27.2552 111.63 26.9728 111.651 26.8484C111.675 26.7176 111.734 26.5941 111.796 26.5563C111.854 26.517 111.901 26.463 111.901 26.4302C111.901 26.3999 112.007 26.3419 112.137 26.309C112.267 26.2788 112.473 26.2124 112.595 26.1667C112.919 26.0465 113.968 26.043 114.442 26.1628C114.798 26.2509 114.901 26.2894 115.522 26.5688C115.665 26.633 115.796 26.686 115.814 26.686C115.829 26.686 115.963 26.7677 116.108 26.8671C116.253 26.9665 116.467 27.0921 116.584 27.1457C116.873 27.2788 117.556 27.8578 117.561 27.9739C117.562 28.0253 117.591 28.0835 117.622 28.1024C117.652 28.1213 117.677 28.1871 117.677 28.2479C117.677 28.4199 117.508 28.8961 117.421 28.9679C117.379 28.9981 117.344 29.0729 117.344 29.1232C117.344 29.173 117.294 29.2452 117.233 29.2837C117.172 29.323 117.122 29.3761 117.122 29.4048C117.122 29.4993 116.617 30.5098 116.536 30.5769C116.491 30.6162 116.456 30.6756 116.456 30.7142C116.456 30.7535 116.366 30.8563 116.257 30.9433C116.148 31.0302 115.979 31.1719 115.882 31.257C115.677 31.4377 115.063 31.7423 114.623 31.8817C114.455 31.935 114.269 32.0123 114.208 32.0535C114.148 32.0962 114.064 32.1287 114.022 32.1287C113.979 32.1287 113.867 32.1591 113.771 32.2049C113.535 32.3081 112.432 32.6788 112.138 32.7534C112.008 32.7837 111.902 32.8341 111.902 32.8591C111.902 32.8818 111.82 32.9068 111.72 32.9068C111.62 32.9068 111.489 32.937 111.428 32.9816C111.368 33.0243 111.199 33.0728 111.053 33.0921C110.907 33.111 110.732 33.158 110.664 33.1966C110.597 33.2359 110.404 33.2966 110.236 33.3336C109.559 33.4833 107.41 34.0732 106.848 34.2637C106.711 34.3113 106.442 34.3907 106.251 34.4432C106.06 34.4954 105.904 34.5582 105.904 34.5828C105.904 34.6054 105.861 34.6303 105.807 34.6303C105.754 34.6303 105.611 34.673 105.488 34.7179C105.366 34.7656 105.166 34.8241 105.044 34.8494C104.768 34.9061 104.369 35.0467 104.174 35.1556C104.093 35.2032 103.98 35.2384 103.923 35.2384C103.866 35.2384 103.769 35.2686 103.708 35.3166C103.647 35.3593 103.485 35.4244 103.348 35.4614C103.212 35.5007 102.963 35.5998 102.795 35.6887C102.627 35.7775 102.461 35.8494 102.427 35.8494C102.392 35.8494 102.335 35.8798 102.301 35.9256C102.266 35.9683 102.141 36.0174 102.023 36.0363C101.906 36.0552 101.778 36.108 101.74 36.1549C101.701 36.2025 101.633 36.2384 101.587 36.2384C101.542 36.2384 101.36 36.3257 101.184 36.4331C101.008 36.54 100.849 36.6271 100.829 36.6271C100.811 36.6271 100.675 36.7086 100.528 36.8072C100.382 36.9067 100.222 37.0125 100.173 37.0435C100.124 37.0737 99.907 37.2178 99.6914 37.363C99.4762 37.5077 99.267 37.6266 99.2269 37.6266C99.1877 37.6266 99.0721 37.7012 98.9717 37.7934C98.8716 37.8853 98.7756 37.9597 98.7591 37.9597C98.7319 37.9597 98.6003 38.0591 98.3126 38.2938C98.2756 38.3202 98.2218 38.3482 98.1917 38.3482C98.1615 38.3482 98.1048 38.3785 98.0646 38.4197C98.0239 38.459 97.9157 38.5435 97.8234 38.6089C97.7314 38.6735 97.5564 38.8188 97.4347 38.9319C97.3132 39.0445 97.1272 39.2031 97.0217 39.2843C96.828 39.4329 96.7017 39.5572 95.4923 40.7925C94.7668 41.5336 94.4773 41.7314 93.7705 41.9681C93.4195 42.0853 93.2561 42.1108 92.993 42.0904C92.8099 42.0753 92.555 42.0602 92.427 42.0429C92.2 42.024 91.9423 41.8992 91.7135 41.6954C91.6513 41.6399 91.4774 41.5322 91.327 41.4562C90.9646 41.2722 90.5166 40.8223 90.3873 40.5123C90.3298 40.3751 90.2367 40.1608 90.1801 40.0366C90.0436 39.7365 90.0469 39.2038 90.1891 38.6931C90.2504 38.4727 90.3001 38.2411 90.3001 38.1787C90.3001 38.001 90.7559 36.6838 90.8709 36.5297C90.9232 36.4591 91.2089 35.9333 91.4147 35.5274C91.4808 35.397 91.5569 35.2771 91.5836 35.2605C91.636 35.2303 91.6528 35.0144 91.6044 35.0144C91.5145 35.0144 90.8716 35.2572 90.801 35.3173C90.7555 35.3566 90.6425 35.4059 90.5511 35.4271C90.4591 35.446 90.2345 35.5357 90.0512 35.6222C89.325 35.9628 89.2096 36.0146 89.1745 36.0146C89.1537 36.0146 89.0016 36.077 88.8347 36.1537C88.6678 36.2297 88.5047 36.2928 88.4721 36.2928C88.4396 36.2928 88.4129 36.3116 88.4129 36.3403C88.4129 36.363 88.2316 36.4579 88.0102 36.5445C87.7888 36.6311 87.5201 36.7497 87.4133 36.8086C87.3062 36.8676 87.1252 36.9675 87.0105 37.0317C86.896 37.0956 86.8019 37.1862 86.8015 37.2342C86.8009 37.3 86.7898 37.3037 86.7561 37.2492C86.7225 37.1959 86.6145 37.2305 86.3149 37.3964C85.7673 37.6973 85.0861 38.157 85.0089 38.2776C84.9847 38.3169 84.9277 38.3473 84.8838 38.3473C84.8393 38.3473 84.8029 38.3699 84.8029 38.4013C84.8029 38.4277 84.7218 38.4972 84.6222 38.5482C84.4234 38.651 84.2918 38.7621 83.7593 39.277C83.5618 39.4674 83.3896 39.6241 83.3765 39.6241C83.3349 39.6241 82.1229 40.8955 82.0589 41.0057C81.9401 41.2098 81.53 41.7232 81.4042 41.8251C81.258 41.9434 80.8331 42.5006 80.7442 42.6904C80.6769 42.8344 80.2755 43.1078 79.9862 43.2071C79.8803 43.2464 79.7748 43.303 79.7523 43.34C79.7281 43.3793 79.5884 43.4199 79.4386 43.435C79.2889 43.4501 79.0656 43.5109 78.943 43.5695C78.7924 43.641 78.666 43.6635 78.5542 43.639C78.3663 43.5962 78.1326 43.5998 77.8886 43.6429C77.7966 43.6618 77.6721 43.6504 77.6111 43.624L77.6063 43.6334ZM14.3806 41.0504C14.242 40.9741 14.2426 40.9729 14.5752 40.8262C14.7583 40.7453 14.9584 40.6559 15.0194 40.6283C15.1365 40.575 16.101 40.2644 16.7133 40.0837C16.9117 40.0247 17.2492 39.9251 17.463 39.8608C17.6768 39.7969 18.1102 39.6806 18.4261 39.602C18.9291 39.4773 19.5251 39.2765 20.0731 39.0486C20.1648 39.0093 20.3365 38.9621 20.4548 38.9413C20.573 38.9224 20.7106 38.8825 20.7602 38.8583C20.9508 38.7634 21.4694 38.5782 21.6431 38.5438C21.7429 38.5249 21.8382 38.4866 21.8547 38.4594C21.8698 38.4329 21.9224 38.4107 21.9684 38.4107C22.0143 38.4107 22.1816 38.3522 22.3399 38.2804C22.4984 38.209 22.7529 38.1043 22.9056 38.0483C23.0584 37.9928 23.2083 37.9307 23.2388 37.9111C23.2694 37.8922 23.4069 37.8404 23.5442 37.798C23.6816 37.7553 23.8067 37.7043 23.8221 37.6838C23.8572 37.6362 24.2595 37.4583 24.6677 37.3083C24.8428 37.244 25.0301 37.1664 25.0843 37.1362C25.1384 37.1097 25.3576 37.0152 25.5714 36.9344C25.7852 36.8539 26.1351 36.7064 26.3489 36.6059C26.5627 36.5053 26.8376 36.3818 26.9598 36.3304C27.0819 36.279 27.2728 36.1882 27.3839 36.1293C27.4951 36.0699 27.6136 36.022 27.6476 36.022C27.6816 36.022 27.7594 35.9721 27.8204 35.9113C27.8815 35.85 27.9696 35.8005 28.0159 35.8005C28.1055 35.8005 29.2169 35.2511 29.2649 35.183C29.28 35.1641 29.3617 35.126 29.4453 35.1048C29.5292 35.0859 29.5975 35.0465 29.5975 35.0227C29.5975 35 29.7538 34.898 29.9446 34.7982C30.1355 34.6988 30.3916 34.553 30.5138 34.4748C30.8288 34.2711 30.9462 34.2001 31.0414 34.1551C31.0873 34.1362 31.202 34.0574 31.2967 33.9867C31.3914 33.9156 31.4975 33.8575 31.5327 33.8575C31.5675 33.8575 31.5968 33.8386 31.5968 33.8084C31.5968 33.7819 31.6408 33.7438 31.6939 33.7242C31.7471 33.7053 31.8412 33.6584 31.9029 33.6206C32.377 33.3299 32.4607 33.2762 32.4852 33.2453C32.5003 33.2264 32.6873 33.0915 32.9004 32.9468C33.3725 32.6255 34.0812 31.9916 34.126 31.8505C34.1441 31.7938 34.1882 31.747 34.2243 31.747C34.2609 31.747 34.3482 31.656 34.4194 31.5467C34.5472 31.3494 34.5478 31.342 34.462 30.9631C34.373 30.5698 34.1866 30.0464 33.9592 29.5543C33.7434 29.0863 33.6509 28.8727 33.6509 28.8396C33.6509 28.8208 33.5883 28.6719 33.5119 28.5045C33.4356 28.3374 33.373 28.1743 33.373 28.1418C33.373 28.1116 33.3489 28.0825 33.3226 28.0825C33.248 28.0825 33.0609 27.6548 32.9828 27.3051C32.9454 27.1373 32.8818 26.9373 32.8424 26.8606C32.5378 26.275 32.4371 24.7595 32.6515 23.9863C32.7125 23.7659 32.7625 23.5123 32.7625 23.4227C32.7625 23.3332 32.7991 23.1888 32.843 23.103C32.8871 23.0164 32.9771 22.8271 33.0424 22.6818C33.1741 22.3892 33.2517 22.3633 33.4898 22.533C33.6206 22.6263 33.6513 22.6887 33.6513 22.8652C33.6513 22.9846 33.7072 23.2188 33.7754 23.3863C33.8888 23.6637 33.9243 23.7001 34.1781 23.7971C34.3606 23.8667 34.4692 23.8838 34.4931 23.8467C34.5173 23.8074 34.561 23.8201 34.617 23.873C34.7171 23.9728 34.9284 23.9408 34.9284 23.8248C34.9284 23.7821 34.9526 23.7485 34.984 23.7485C35.0146 23.7485 35.0396 23.771 35.0396 23.8013C35.0396 23.8277 35.0874 23.8806 35.1458 23.9115C35.3142 24.0019 36.3724 23.5798 36.3724 23.4227C36.3724 23.3751 36.3875 23.3568 36.4095 23.375C36.4302 23.3939 36.5568 23.3486 36.6915 23.2689C36.9537 23.115 37.2055 23.12 37.2055 23.2765C37.2055 23.6606 36.4245 24.2799 35.1785 24.8839C34.3593 25.2809 34.098 25.4825 34.0966 25.718C34.096 25.8114 34.1208 25.9115 34.1486 25.9406C34.2091 26.0011 34.6573 27.0049 34.8291 27.4645C34.8919 27.6324 34.962 27.7949 34.9848 27.8256C35.009 27.8558 35.0444 27.9635 35.0657 28.0648C35.0865 28.1661 35.1403 28.3156 35.183 28.3977C35.2256 28.4797 35.2609 28.6027 35.2612 28.6715C35.2612 28.7399 35.3114 28.9277 35.3727 29.0879C35.4337 29.2481 35.4837 29.4674 35.4837 29.5748C35.4837 29.6818 35.5045 29.8479 35.5336 29.9439C35.5673 30.0607 35.5578 30.2391 35.5064 30.4835C35.4643 30.685 35.4436 30.8849 35.4605 30.929C35.4756 30.9717 35.4514 31.0893 35.3992 31.1864C35.312 31.3553 35.2007 31.7199 35.0864 32.2125C35.0592 32.3346 34.9857 32.5404 34.9258 32.6699C34.8657 32.7992 34.8167 32.9454 34.8167 32.995C34.8167 33.1495 34.3804 33.8314 34.0556 34.1837C33.9855 34.2596 33.928 34.3399 33.928 34.3622C33.928 34.4193 33.6343 34.6838 33.5676 34.6861C33.4846 34.6861 33.2873 34.8655 33.2137 35.0031C33.1574 35.1081 32.9139 35.295 32.3822 35.6414C32.2103 35.7532 31.9988 35.8504 31.9271 35.8504C31.8999 35.8504 31.8505 35.9002 31.8176 35.9611C31.7851 36.0223 31.7241 36.0725 31.6829 36.0725C31.6413 36.0725 31.5942 36.1027 31.5776 36.1507C31.5625 36.1934 31.3109 36.3434 31.0219 36.4829C30.699 36.639 30.4167 36.821 30.2903 36.9544C30.0879 37.1676 29.9508 37.2426 29.4094 37.4345C29.2609 37.4874 29.0983 37.5794 29.0485 37.6391C28.9435 37.7638 28.6099 37.9373 28.3724 37.9895C28.2822 38.0084 28.2083 38.0464 28.2083 38.0721C28.2083 38.0948 28.1208 38.1477 28.0137 38.1828C27.9069 38.2221 27.8192 38.2679 27.8192 38.294C27.8192 38.3167 27.7386 38.3584 27.6406 38.3803C27.4484 38.423 27.3137 38.488 27.1041 38.6414C27.031 38.6947 26.9239 38.7381 26.8659 38.7381C26.8079 38.7381 26.7475 38.7685 26.7312 38.8142C26.7161 38.8569 26.647 38.8916 26.5802 38.8919C26.4527 38.8919 26.0787 39.0536 25.7879 39.2313C25.6941 39.2887 25.5377 39.3531 25.4408 39.3743C25.3437 39.3932 25.2646 39.4329 25.2646 39.4571C25.2646 39.4798 25.1558 39.5133 25.0225 39.5284C24.8785 39.5435 24.6012 39.6566 24.3376 39.8048C24.0941 39.9416 23.791 40.0704 23.6642 40.0908C23.3764 40.1384 23.0385 40.2901 22.9429 40.4186C22.8933 40.4847 22.7944 40.5153 22.6304 40.5153C22.4933 40.5153 22.3631 40.5454 22.3264 40.5923C22.2239 40.7163 21.8344 40.7875 21.2096 40.7969C20.8385 40.8007 20.5732 40.8362 20.4776 40.8823C20.3952 40.925 20.2497 40.9593 20.1546 40.9593C20.0596 40.9593 19.9339 40.9821 19.8756 41.0161C19.807 41.0554 19.6275 41.0554 19.3656 41.0237C19.1115 40.9972 18.9291 40.9971 18.8744 41.0274C18.8161 41.0667 18.5837 41.0502 18.1702 40.9882C17.1552 40.8393 15.2665 40.8939 14.6019 41.0908C14.556 41.1059 14.456 41.0834 14.3797 41.0385L14.3806 41.0504ZM7.49437 37.5304C7.49437 37.504 7.28808 37.4663 7.03622 37.4456C6.5297 37.4028 5.96022 37.3193 5.66172 37.2414C5.20607 37.122 4.68385 36.9571 4.6066 36.9087C4.56071 36.8823 4.46134 36.8298 4.3856 36.7969C4.01294 36.6377 3.67919 36.4476 3.57917 36.3378C3.42973 36.1742 3.0732 35.912 2.99977 35.912C2.96726 35.912 2.94054 35.8726 2.94054 35.8291C2.94054 35.7815 2.76552 35.5693 2.55178 35.353C2.33797 35.1368 2.16305 34.9402 2.16305 34.9166C2.16305 34.8939 1.99107 34.6138 1.78098 34.2953C1.37734 33.6843 1.21896 33.3156 1.21896 32.9871C1.21896 32.8771 1.16725 32.7032 1.10414 32.6014C1.00156 32.4359 0.99261 32.3565 1.01994 31.8729C1.07886 30.834 1.18955 29.9557 1.30199 29.6374C1.34791 29.507 1.38556 29.3326 1.38556 29.25C1.38556 29.1673 1.4037 29.0811 1.42721 29.0576C1.4514 29.035 1.4698 28.9995 1.47124 28.9788C1.47223 28.9599 1.50262 28.8891 1.5383 28.8249C1.68052 28.5698 1.82394 28.1392 1.77674 28.11C1.74953 28.0911 1.71116 28.1064 1.69196 28.1328C1.67382 28.1631 1.61075 28.1887 1.55424 28.1887C1.37018 28.1887 0.785406 27.8765 0.635083 27.6978C0.460393 27.4899 0.220281 27.0314 0.219953 26.9047C0.219862 26.8548 0.166689 26.6942 0.102059 26.5483C-0.00947523 26.2965 -0.0140381 26.2202 0.01548 25.1111C0.039669 24.1548 0.0719774 23.8232 0.184456 23.3016C0.370862 22.439 0.432542 22.2156 0.58279 21.8575C0.653165 21.6897 0.740933 21.4336 0.777934 21.2884C0.814973 21.1433 0.863657 21.0245 0.886183 21.0245C0.910372 21.0245 0.943619 20.9187 0.963159 20.7883C0.983946 20.6583 1.03411 20.4772 1.07742 20.3855C1.26507 19.9866 1.38583 19.6876 1.38602 19.6227C1.38613 19.5834 1.43595 19.4708 1.49729 19.371C1.55833 19.2705 1.6083 19.1581 1.6083 19.1207C1.6083 19.0814 1.69251 18.8772 1.79561 18.6639C1.89845 18.45 2.05122 18.1256 2.13437 17.9424C2.27512 17.6324 2.71423 16.7477 2.89765 16.4042C3.03477 16.1472 3.31325 15.8969 3.41731 15.937C3.49433 15.9635 3.5048 16.019 3.47653 16.2265C3.45839 16.3664 3.39807 16.5463 3.34421 16.6279C3.24802 16.7734 3.14635 16.9777 2.86981 17.5813C2.79282 17.7492 2.67739 17.9978 2.61329 18.1331C2.54926 18.2688 2.49692 18.4136 2.49692 18.4552C2.49692 18.4979 2.4496 18.6229 2.39196 18.7359C2.28042 18.954 2.24225 19.0569 1.99646 19.8021C1.50561 21.2899 1.29381 22.263 1.24103 23.273C1.23196 23.4869 1.21042 23.6899 1.197 23.724C1.16336 23.8128 1.27222 24.6455 1.32665 24.7148C1.35083 24.745 1.38859 24.8665 1.4093 24.981C1.43009 25.0955 1.47063 25.1891 1.49977 25.1891C1.53001 25.1891 1.55269 25.2375 1.55269 25.295C1.55269 25.4439 1.8498 25.6769 2.0958 25.7215C2.20945 25.7404 2.34869 25.7826 2.40489 25.8117C2.48279 25.8544 2.53359 25.8344 2.61538 25.7489C2.68995 25.6688 2.79189 25.6334 2.94329 25.6334C3.10835 25.6334 3.16341 25.6145 3.16341 25.5439C3.16341 25.4891 3.13279 25.4667 3.0843 25.4848C3.03887 25.5037 2.96883 25.4622 2.91924 25.384C2.87174 25.3114 2.78243 25.2368 2.72048 25.2168C2.62248 25.1865 2.61829 25.1692 2.68761 25.1019C2.78928 25.0002 2.85122 24.9995 2.81213 25.1019C2.78795 25.1623 2.83935 25.181 3.02833 25.181C3.16364 25.181 3.2746 25.1583 3.2746 25.1266C3.2746 25.0109 3.15162 24.8502 3.08336 24.8763C3.02686 24.8952 3.02473 24.8764 3.07428 24.7702C3.13687 24.6352 3.2198 24.589 3.2198 24.6892C3.2198 24.7156 3.26145 24.7285 3.3127 24.7081C3.38308 24.6816 3.3969 24.693 3.37015 24.7655C3.34596 24.8268 3.36107 24.8583 3.41607 24.8583C3.46104 24.8583 3.49756 24.8082 3.49756 24.7473C3.49756 24.6853 3.5346 24.6366 3.58086 24.6366C3.62678 24.6366 3.66415 24.6139 3.66415 24.5803C3.66415 24.5501 3.60523 24.5376 3.52525 24.5614C3.36349 24.6041 3.34513 24.5463 3.48361 24.4352C3.57353 24.3623 3.57171 24.3593 3.45942 24.3877C3.39328 24.4066 3.32142 24.3914 3.29973 24.3611C3.25475 24.2886 3.53519 23.9897 3.66294 23.9736C3.83374 23.9547 3.94619 23.9773 3.91282 24.0317C3.89467 24.062 3.92793 24.0873 3.9886 24.0873C4.0869 24.0873 4.10076 24.135 4.11823 24.5176C4.13637 24.9401 4.12994 24.9657 3.74072 25.9476C3.52242 26.4973 3.29682 27.097 3.23956 27.2802C3.15691 27.5455 3.06994 27.6777 2.81477 27.9294C2.43795 28.3009 2.33029 28.5261 2.33029 28.9428C2.33029 29.1979 2.30951 29.2583 2.21151 29.3116C2.09933 29.3717 2.09513 29.4015 2.13183 29.8551C2.18985 30.5747 2.21267 30.7552 2.28067 31.0291C2.38468 31.4502 2.51039 31.7733 2.61716 31.8934C2.6731 31.9562 2.71884 32.0264 2.71884 32.0487C2.71884 32.13 3.46488 33.012 3.87755 33.4183C4.26173 33.7965 5.09305 34.3613 5.26553 34.3613C5.30219 34.3613 5.4345 34.4262 5.56078 34.5059C5.69643 34.5914 5.95453 34.68 6.1914 34.7212C6.41212 34.7605 6.61623 34.8057 6.64534 34.8238C6.6752 34.8427 6.8588 34.8727 7.05483 34.8916C7.25088 34.9105 7.49894 34.9487 7.60584 34.977C7.8551 35.0416 9.02456 35.0405 10.0215 34.977C11.2309 34.8965 13.4344 34.4239 13.6841 34.1918C13.7143 34.1653 13.7968 34.1422 13.8702 34.1422C13.9436 34.1422 14.0822 34.1029 14.1784 34.0633C14.3483 33.9862 14.5609 33.8985 15.5474 33.4969C15.8069 33.3911 16.1194 33.2587 16.2416 33.2028C17.0885 32.8148 17.3758 32.6778 17.5466 32.5811C17.6534 32.5206 17.9285 32.3808 18.1575 32.2697C18.3867 32.159 18.6514 32.0103 18.7459 31.9389C18.8406 31.8675 18.9467 31.8097 18.9819 31.8097C19.0167 31.8097 19.046 31.791 19.046 31.7603C19.046 31.7339 19.09 31.6964 19.1434 31.6782C19.2309 31.6518 19.3503 31.5792 19.5152 31.4621C19.9199 31.1733 20.1518 31.0219 20.2606 30.9751C20.4392 30.898 20.9291 30.5166 20.932 30.4521C20.935 30.3595 20.6872 30.0327 20.5873 30.0005C20.5338 29.9816 20.4899 29.9461 20.4899 29.9174C20.4899 29.8909 20.4518 29.866 20.4057 29.866C20.3597 29.866 20.2781 29.8434 20.2253 29.8154C19.7695 29.5773 19.2569 29.4335 18.7405 29.3988C18.435 29.3799 17.9246 29.3251 17.6062 29.2805C17.2879 29.2378 16.8839 29.1991 16.7084 29.1991C16.5328 29.1991 16.3809 29.1726 16.3702 29.1416C16.3612 29.1114 16.222 29.0753 16.0645 29.0643C15.8143 29.0454 15.2948 28.8531 15.2135 28.7458C15.1983 28.7269 15.1106 28.691 15.0189 28.6687C14.9278 28.6498 14.8153 28.598 14.7696 28.5598C14.7237 28.5205 14.6268 28.4725 14.554 28.4498C14.3817 28.3973 14.1031 28.1474 14.1031 28.0461C14.1031 28.0034 14.054 27.8981 13.994 27.8138C13.7841 27.5186 13.6797 26.7044 13.7736 26.0915C13.8042 25.892 13.853 25.5736 13.8821 25.3845C13.9124 25.1955 13.9696 24.958 14.012 24.8569C14.0546 24.756 14.1452 24.4858 14.2135 24.2566C14.2821 24.0276 14.372 23.7651 14.4135 23.6735C14.4551 23.5816 14.5545 23.3197 14.6351 23.0903C14.7157 22.8613 14.8288 22.6224 14.8865 22.5593C14.9442 22.4965 14.9917 22.4084 14.9917 22.3646C14.9919 22.3219 15.0666 22.1721 15.1583 22.0349C15.2494 21.8977 15.3246 21.7542 15.3249 21.7157C15.325 21.6764 15.3491 21.646 15.3763 21.646C15.4036 21.646 15.4443 21.57 15.4645 21.4767C15.4856 21.3841 15.5493 21.2776 15.6076 21.2409C15.666 21.2016 15.7137 21.1448 15.7137 21.1078C15.7137 21.0685 15.7587 21.0084 15.8142 20.9687C15.8695 20.9294 16.0202 20.7591 16.149 20.5906C16.6596 19.9254 17.7755 18.7513 18.2147 18.4173C18.3205 18.3368 18.482 18.1939 18.5737 18.099C18.6654 18.0049 18.7573 17.927 18.7784 17.9262C18.7992 17.9262 18.8993 17.848 19.0006 17.7539C19.7848 17.0275 21.3914 16.7025 22.1895 17.1087C22.4456 17.2394 23.0997 17.8543 23.0997 17.965C23.0997 18.0239 22.8709 18.5983 22.6844 19.0072C22.6147 19.1603 22.4893 19.4777 22.4054 19.7138C22.2175 20.2421 22.1275 20.2892 21.8263 20.0169C21.7088 19.9111 21.5599 19.8071 21.4953 19.7867C21.431 19.7678 21.378 19.7304 21.378 19.7066C21.378 19.684 21.2367 19.5948 21.0641 19.5101C20.7548 19.3585 20.7425 19.357 20.205 19.4137C19.9052 19.4439 19.5903 19.5063 19.5054 19.5498C19.4203 19.5925 19.2636 19.6709 19.1567 19.7223C19.0499 19.7737 18.8375 19.9274 18.685 20.0642C18.5326 20.2003 18.3778 20.312 18.3411 20.312C18.3041 20.312 18.2415 20.3548 18.2016 20.4088C18.1619 20.4618 18.0167 20.5917 17.8792 20.696C17.5571 20.9417 17.5414 20.9553 17.0324 21.4573C16.7958 21.6909 16.602 21.8983 16.602 21.9182C16.602 21.9371 16.4832 22.0794 16.3383 22.2306C15.905 22.683 15.5791 23.0849 15.5051 23.258C15.4667 23.3476 15.4146 23.4209 15.3885 23.4209C15.3613 23.4209 15.2947 23.5267 15.2375 23.6571C15.1804 23.7875 15.1191 23.9054 15.1016 23.9205C15.0835 23.9357 14.9994 24.0943 14.9131 24.2723C14.7934 24.5203 14.7498 24.7063 14.7276 25.0615C14.7004 25.4927 14.7094 25.5493 14.8572 25.8401C15.0181 26.1583 15.3652 26.5112 15.6794 26.6763C16.1502 26.9235 16.319 26.9959 16.6546 27.0968C16.8549 27.1565 17.1436 27.2307 17.2964 27.2613C17.4491 27.2878 17.649 27.3383 17.7406 27.3644C17.8323 27.3909 18.192 27.4398 18.54 27.4742C18.8881 27.5045 19.2129 27.5562 19.262 27.5815C19.311 27.6042 19.5257 27.6574 19.7388 27.6941C19.952 27.7334 20.158 27.7862 20.1964 27.8179C20.2833 27.8905 20.7978 28.1756 21.0033 28.2652C21.0872 28.3046 21.156 28.3643 21.156 28.4032C21.156 28.4425 21.1878 28.4742 21.227 28.4742C21.2659 28.4742 21.338 28.5171 21.3873 28.5711C21.4364 28.624 21.5248 28.706 21.5834 28.7518C21.7632 28.8924 22.0504 29.3369 22.0984 29.5497C22.1631 29.8366 22.0712 30.1748 21.8347 30.5287C21.5707 30.9224 21.5077 31.0261 21.4291 31.1952C21.394 31.2711 21.3176 31.4246 21.2601 31.5361C21.2026 31.6469 21.1557 31.7915 21.1557 31.8572C21.1557 31.923 21.121 32.0319 21.0778 32.0992C21.0352 32.1669 20.9828 32.3097 20.9614 32.4166C20.9088 32.6816 20.7882 32.8572 20.6055 32.9348C20.4618 32.996 20.2814 33.1276 19.8574 33.4812C19.7596 33.5629 19.5432 33.6904 19.3764 33.7652C19.2098 33.8393 19.0233 33.9567 18.9623 34.0259C18.9012 34.0951 18.7262 34.2119 18.5735 34.2852C18.4207 34.3589 18.1209 34.518 17.9071 34.6386C17.6933 34.7595 17.4622 34.8872 17.3934 34.9235C17.3245 34.9628 17.2683 35.0097 17.2683 35.0354C17.2683 35.058 17.2347 35.0831 17.1935 35.0831C17.1173 35.0831 16.8745 35.1843 16.574 35.3415C15.6884 35.8043 14.9853 36.1138 14.6953 36.1683C14.5826 36.1872 14.4346 36.2501 14.3661 36.3023C14.2975 36.3552 14.1229 36.4279 13.9776 36.4638C13.8323 36.5031 13.5799 36.5899 13.4166 36.6651C13.0744 36.8212 12.6798 36.9206 12.5687 36.8783C12.5266 36.8632 12.4921 36.8745 12.4921 36.8972C12.4921 36.9962 11.9047 37.1814 11.4932 37.2116C11.2644 37.2305 11.0687 37.2685 11.0581 37.3002C11.0491 37.3305 10.9346 37.3572 10.8071 37.3572C10.6795 37.3572 10.488 37.3837 10.3813 37.4193C10.2746 37.4495 9.79997 37.4907 9.32652 37.5021C8.85308 37.5172 8.3533 37.5284 8.21585 37.5413C8.07843 37.5488 7.92271 37.5338 7.87017 37.5021C7.80248 37.4628 7.75444 37.4626 7.70628 37.5171C7.62809 37.5953 7.494 37.6082 7.494 37.536L7.49437 37.5304ZM50.3668 36.5567C49.9327 36.3897 49.76 36.2959 49.4885 36.0815C49.3318 35.9575 49.189 35.8566 49.1711 35.8566C49.111 35.8566 48.4231 35.1495 48.4231 35.088C48.4231 35.0577 48.3378 34.9416 48.2331 34.8377C47.9823 34.5875 47.757 33.8932 47.7559 33.3691C47.7553 32.9219 47.7185 32.7657 47.6047 32.7221C47.4636 32.668 47.0628 32.8997 46.6956 33.2483C46.2306 33.6893 46.1402 33.7637 45.9788 33.8381C45.9027 33.8684 45.6012 34.0184 45.3083 34.1601C44.8793 34.3684 44.7269 34.4166 44.5231 34.4056C44.3204 34.3905 44.2362 34.4207 44.0993 34.5364C43.8741 34.7261 43.604 34.6947 43.0193 34.4116C42.6566 34.2355 42.5409 34.1435 42.3102 33.849C42.1587 33.6547 42.0088 33.4653 41.9771 33.4263C41.868 33.2929 41.649 32.7742 41.6485 32.6478C41.6479 32.5782 41.6092 32.4618 41.5619 32.3892C41.3457 32.0589 41.1415 31.2273 40.9208 29.7755C40.8936 29.5922 40.833 29.2549 40.7876 29.0258C40.7422 28.7968 40.6929 28.4343 40.6784 28.2205C40.5837 26.8395 40.5356 26.0906 40.4782 25.1106C40.3964 23.7166 40.3825 23.5105 40.3468 23.1671C40.3165 22.895 40.2084 21.1849 40.1663 20.3625C40.1546 20.1334 40.1338 19.8585 40.12 19.7516C40.1049 19.6447 40.0709 19.0201 40.0418 18.3634C40.0115 17.7066 39.9627 16.8443 39.9308 16.4473C39.899 16.0503 39.8505 15.4356 39.8231 15.0814C39.7914 14.6635 39.7431 14.3906 39.6866 14.304C39.6373 14.2284 39.5942 14.0262 39.5874 13.8373C39.5809 13.654 39.5443 13.4541 39.5061 13.393C39.4681 13.3318 39.4198 13.1696 39.3982 13.032C39.3167 12.5111 38.5951 11.0327 38.4222 11.0327C38.3897 11.0327 38.3211 11.1333 38.2703 11.2558C38.1142 11.6292 38.0222 11.5282 37.9407 10.8936C37.8803 10.4227 37.8824 10.2441 37.9524 9.71179C38.0679 8.85073 38.2834 8.17519 38.4648 8.10553C38.5635 8.06623 39.0369 8.30704 39.0369 8.39435C39.0369 8.43366 39.1117 8.54736 39.2035 8.64487C39.2952 8.74314 39.3701 8.84558 39.3701 8.87279C39.3701 8.89925 39.3942 8.92285 39.4215 8.92285C39.5911 8.92285 40.3584 10.3384 40.288 10.5217C40.2578 10.5969 40.3321 10.9368 40.4269 11.172C40.4511 11.2332 40.4865 11.4065 40.5045 11.5575C40.5226 11.7087 40.5574 11.8459 40.5824 11.8629C40.6876 11.9347 40.8313 13.2433 40.9273 15.0037C40.9838 16.0421 41.047 16.9606 41.0674 17.0445C41.0882 17.1349 41.0825 17.1975 41.0493 17.1975C41.0145 17.1975 41.0091 17.2735 41.0376 17.4058C41.0617 17.5203 41.1094 18.2139 41.1446 18.947C41.1794 19.68 41.233 20.5046 41.2631 20.7795C41.2933 21.0547 41.3427 21.6667 41.3741 22.1401C41.4047 22.6136 41.4516 23.0932 41.4778 23.2061C41.5122 23.3562 41.505 23.442 41.4465 23.5233C41.3905 23.6034 41.3836 23.6638 41.4223 23.7348C41.4525 23.7893 41.504 24.2216 41.5365 24.6949C41.615 25.8443 41.6405 26.1304 41.6851 26.3609C41.7058 26.4679 41.7277 26.6179 41.7341 26.6938C41.7963 27.4342 42.1291 29.3529 42.2251 29.5262C42.2677 29.6021 42.3451 29.8274 42.3974 30.0261C42.4837 30.353 42.5664 30.5676 42.6964 30.8035C42.7206 30.8511 42.7884 30.9823 42.8446 31.0994C42.9011 31.2162 43.0046 31.3786 43.0749 31.4602C43.1453 31.5422 43.2027 31.6221 43.2027 31.6388C43.2028 31.6539 43.3296 31.7632 43.4845 31.8785C43.8559 32.1559 44.4715 32.3469 44.7201 32.2621C44.8176 32.2318 45.0205 32.1848 45.1717 32.164C45.4767 32.1213 46.3037 31.7254 46.5627 31.4969C47.5641 30.6137 47.7354 30.4771 47.9637 30.3797C48.0876 30.3268 48.1772 30.2282 48.2538 30.0604C48.3717 29.8019 48.4391 29.7137 48.9283 29.1845L49.2388 28.8477L49.409 28.9356C49.5028 28.9844 49.6309 29.0927 49.6935 29.1774C49.7563 29.262 49.8523 29.3907 49.9067 29.4625C50.0691 29.6768 50.7568 30.3589 50.8109 30.3589C50.8381 30.3589 50.881 30.389 50.9053 30.4314C50.9295 30.4707 51.0496 30.5626 51.1717 30.6344C51.2938 30.7062 51.4189 30.7924 51.4496 30.8256C51.5263 30.9099 52.1093 31.1922 52.2064 31.1922C52.2504 31.1922 52.431 31.2674 52.6084 31.3596C52.7858 31.4515 53.0225 31.5505 53.1344 31.5793C53.2463 31.6057 53.4877 31.6728 53.671 31.7223C53.8541 31.7725 54.0541 31.817 54.1152 31.8226C54.1765 31.8264 54.2514 31.8453 54.2818 31.8653C54.3124 31.8842 54.5241 31.9176 54.7522 31.9391C54.9804 31.958 55.21 32.0016 55.2626 32.0295C55.315 32.056 55.6908 32.1206 56.0973 32.1693C56.5039 32.2181 57.0114 32.2813 57.2252 32.3096C57.9682 32.4079 59.3596 32.4539 60.2612 32.4104C60.76 32.3877 61.5055 32.3507 61.9178 32.3322C62.3302 32.3133 62.7799 32.2758 62.9175 32.2489C63.0549 32.2225 63.5796 32.1715 64.0837 32.1364C64.5876 32.1061 65.1124 32.0499 65.2499 32.0219C65.3873 31.9955 65.7247 31.9459 65.9995 31.9149C66.5956 31.848 67.097 31.766 67.566 31.6598C67.7554 31.6171 67.984 31.5811 68.0739 31.5811C68.2618 31.5811 69.2722 31.3982 69.8036 31.2685C70.0024 31.2198 70.2646 31.159 70.3868 31.134C71.2777 30.95 71.8579 30.7602 71.8582 30.6526C71.8582 30.6133 71.6522 30.3772 71.4003 30.1232C71.1483 29.8688 70.8921 29.5886 70.8311 29.4996C70.7698 29.4108 70.6762 29.3001 70.6227 29.2533C70.5692 29.2056 70.5259 29.1425 70.5259 29.1112C70.5259 29.0809 70.4249 28.9086 70.3015 28.731C70.1782 28.5534 70.0234 28.2657 69.9575 28.0922C69.7154 27.4547 69.826 25.8371 70.1643 25.0663C70.2069 24.9685 70.3176 24.6859 70.41 24.4377C70.5597 24.0345 70.9233 23.4031 71.1198 23.205C71.1591 23.1623 71.1929 23.1044 71.1929 23.0723C71.1929 23.0062 71.2819 22.9283 71.6093 22.7083C72.0955 22.3821 72.7652 22.2208 74.0807 22.1131C75.4592 22.0001 76.0225 21.9382 76.5519 21.8384C77.2921 21.7004 78.3891 21.3886 78.4431 21.3011C78.4613 21.2747 78.5751 21.207 78.6948 21.159C78.8142 21.1106 78.9122 21.0494 78.9122 21.0222C78.9122 20.9958 78.944 20.9726 78.9823 20.9726C79.0207 20.9726 79.206 20.8231 79.394 20.6398C79.5819 20.4564 79.7526 20.3069 79.7735 20.3069C79.7943 20.3069 79.8868 20.3608 79.9789 20.4261C80.1298 20.5339 80.1433 20.5681 80.1159 20.771C80.1008 20.895 80.0486 21.0235 80.0044 21.0564C79.959 21.0866 79.8496 21.277 79.7597 21.4746C79.5663 21.8996 79.4971 22.0432 79.3567 22.3118C79.2301 22.5529 78.3906 23.4163 78.2819 23.4163C78.2393 23.4163 78.1418 23.4661 78.0639 23.527C77.9857 23.5882 77.8742 23.6382 77.8149 23.6382C77.7557 23.6382 77.5972 23.7182 77.4627 23.816C77.2883 23.9427 77.1548 23.9949 76.9962 23.9976C76.8742 23.9976 76.7427 24.0202 76.7046 24.0451C76.6661 24.0678 76.6165 24.0754 76.5936 24.064C76.5694 24.0489 76.3268 24.0943 76.0521 24.1699C75.7772 24.2421 75.4811 24.3025 75.394 24.3032C75.3072 24.3032 75.1508 24.3459 75.0468 24.3951C74.9262 24.4518 74.8024 24.4711 74.7052 24.4465C74.3683 24.3622 74.1776 24.3498 74.1412 24.4073C74.114 24.45 74.0443 24.4499 73.9069 24.411C73.6297 24.335 71.9194 24.5528 71.7913 24.6802C71.7562 24.7195 71.6803 24.7455 71.6241 24.7455C71.5204 24.7455 71.2571 24.8911 71.1756 24.9939C71.1514 25.0242 71.1439 25.2704 71.1605 25.5393C71.1877 25.9827 71.2149 26.0738 71.4494 26.525C71.5914 26.7986 71.7294 27.0221 71.7562 27.0221C71.7834 27.0221 71.8462 27.1095 71.8972 27.2161C71.9487 27.3231 72.01 27.4106 72.0352 27.4106C72.0594 27.4106 72.0807 27.437 72.0807 27.4722C72.0807 27.5024 72.1369 27.6026 72.2055 27.6865C72.2746 27.7707 72.3679 27.8959 72.4138 27.9647C72.6105 28.261 73.2089 28.7986 73.3421 28.7986C73.3603 28.7986 73.4164 28.829 73.4648 28.8706C73.7111 29.0731 74.4583 29.2666 75.2482 29.3329C75.6321 29.3631 75.717 29.3517 76.2756 29.1654C76.6104 29.0535 76.9278 28.9383 76.9809 28.9084C77.0344 28.8819 77.106 28.8544 77.1415 28.8544C77.2419 28.8544 77.6975 28.6231 77.9118 28.4625C78.1473 28.2864 78.2685 28.2357 78.5227 28.2055C78.6298 28.1904 78.7672 28.1509 78.8283 28.1116C78.8896 28.0723 79.1892 27.9446 79.4946 27.8256C79.8 27.7076 80.1 27.5803 80.161 27.5448C80.2224 27.5055 80.3454 27.462 80.4347 27.4412C80.5246 27.4223 80.7542 27.3297 80.9461 27.2405C81.1379 27.151 81.3358 27.0777 81.3859 27.0777C81.4364 27.0777 81.5558 27.0383 81.652 26.9956C81.9365 26.8621 82.5299 26.6846 82.8039 26.6514C83.1004 26.6121 83.2987 26.6988 83.2987 26.8595C83.2987 26.9815 83.1516 27.3622 83.0864 27.4092C83.0289 27.4519 82.6876 28.1599 82.6876 28.2371C82.6876 28.2673 82.6634 28.2994 82.6323 28.2994C82.6017 28.2994 82.577 28.3471 82.577 28.4023C82.577 28.4586 82.5295 28.5477 82.4711 28.6002C82.4127 28.6531 82.3346 28.7695 82.2976 28.8595C82.2541 28.9642 82.1777 29.0338 82.0841 29.053C82.0041 29.0681 81.9001 29.104 81.8532 29.1282C81.8068 29.1509 81.6815 29.1922 81.5753 29.2145C81.4695 29.2334 81.3579 29.2746 81.3273 29.2973C81.2966 29.32 81.1715 29.3702 81.0497 29.4076C80.4827 29.5818 79.0121 30.2025 78.4042 30.5241C78.2929 30.5831 78.1759 30.6311 78.1435 30.6311C78.111 30.6311 77.9938 30.6852 77.8828 30.7502C77.7718 30.8159 77.464 30.9433 77.1993 31.0344C76.9347 31.1247 76.693 31.2173 76.6625 31.2392C76.6319 31.2581 76.3194 31.3741 75.9682 31.4897C75.6171 31.6058 75.3059 31.7226 75.2769 31.749C75.2467 31.7755 75.1939 31.7975 75.156 31.7975C75.1186 31.7975 74.8986 31.8853 74.6671 31.9915C74.4356 32.0984 74.2104 32.186 74.1666 32.186C74.123 32.186 74.0716 32.2088 74.0523 32.2413C74.0342 32.2678 73.9732 32.2967 73.9188 32.2967C73.8644 32.2967 73.7471 32.327 73.6584 32.3747C73.2947 32.5508 72.9721 32.6856 72.9151 32.6856C72.8201 32.6856 71.9453 32.9793 71.9144 33.0224C71.8962 33.0413 71.7989 33.078 71.6921 33.0988C71.5851 33.1177 71.2813 33.2107 71.0168 33.3006C70.7522 33.3902 70.4649 33.4642 70.3782 33.4653C70.1764 33.4653 69.6671 33.594 69.4112 33.7043C69.302 33.7519 68.9897 33.8185 68.717 33.8529C68.4442 33.8831 68.1212 33.9428 67.9992 33.9749C67.8771 34.0051 67.727 34.04 67.6659 34.0483C67.6046 34.0558 67.3174 34.1011 67.0273 34.1484C66.7371 34.196 66.3642 34.2493 66.1985 34.2686C66.0328 34.2875 65.8543 34.3255 65.8015 34.3546C65.7146 34.4022 65.1927 34.4563 63.2232 34.6287C62.8566 34.6589 62.2194 34.7224 61.807 34.7655C61.3947 34.8082 60.9948 34.8435 60.9185 34.8416C60.8424 34.8416 60.1549 34.8566 59.3913 34.8808C57.9699 34.9235 57.8876 34.9202 56.1426 34.6882C55.3048 34.5782 54.9167 34.5097 54.1156 34.3302C53.9017 34.2818 53.6378 34.2428 53.5292 34.242C53.4206 34.242 53.2829 34.2027 53.2238 34.1592C53.1645 34.1116 53.0491 34.0769 52.9675 34.0762C52.8858 34.0762 52.6359 34.0014 52.4122 33.9126C52.1885 33.8231 51.9141 33.7336 51.8025 33.7129C51.6227 33.6826 51.595 33.6941 51.558 33.8056C51.5339 33.877 51.5117 34.098 51.5054 34.2965C51.499 34.5044 51.4423 34.7991 51.3719 34.9908C51.3046 35.1741 51.2269 35.43 51.199 35.5592C51.1718 35.6881 51.1085 35.8714 51.0598 35.9657C50.9909 36.0995 50.9855 36.1543 51.0356 36.2162C51.0787 36.2684 51.081 36.2961 51.042 36.2961C51.0095 36.2961 50.95 36.3649 50.9097 36.4492C50.824 36.6291 50.6502 36.6619 50.3656 36.5523L50.3668 36.5567ZM87.2138 26.3427C87.1218 26.3034 86.9474 26.2137 86.8251 26.1363C86.5259 25.9469 86.1275 25.7715 85.6587 25.6221L85.27 25.4982L85.2908 25.2207C85.3116 24.9467 85.5362 24.2319 85.6455 24.0961C85.6761 24.0568 85.7423 23.9516 85.7916 23.8613C85.9606 23.5513 86.3039 23.0832 86.3619 23.0832C86.4698 23.0832 87.0474 23.2616 87.1005 23.3111C87.1307 23.3375 87.1925 23.3607 87.2403 23.3607C87.2887 23.3607 87.4204 23.4104 87.5343 23.4716C87.6486 23.5329 87.801 23.5824 87.8738 23.5824C87.9459 23.5824 88.0388 23.6217 88.0788 23.6705C88.1195 23.7189 88.2719 23.8195 88.4188 23.8936C88.6557 24.0137 88.6861 24.0491 88.6852 24.2082C88.6846 24.3069 88.613 24.5129 88.5261 24.6654C87.8207 25.9057 87.5227 26.3886 87.4572 26.3974C87.4146 26.4012 87.3055 26.3794 87.2138 26.3427ZM7.39379 25.5478C7.34697 25.465 7.47226 24.8242 7.54955 24.7496C7.56467 24.7345 7.61149 24.6219 7.65212 24.4998C7.69279 24.3777 7.7841 24.153 7.85508 24.0001C8.1266 23.416 8.20666 23.2163 8.24503 23.0283C8.26582 22.9213 8.30248 22.8087 8.3244 22.7784C8.34519 22.7482 8.40679 22.6064 8.45909 22.4647C8.54122 22.2425 8.54543 22.1534 8.49161 21.8262C8.39685 21.2511 8.21464 20.4665 8.1327 20.2792C8.09249 20.1874 8.03138 20.0054 7.99653 19.8748C7.9325 19.6344 7.7547 19.2656 7.58611 19.025C7.53588 18.9532 7.49439 18.8638 7.49439 18.8263C7.49439 18.7458 7.16505 18.1767 6.81489 17.6519C6.57229 17.2887 5.86503 16.531 5.76809 16.531C5.74088 16.531 5.71725 16.4916 5.71725 16.4478C5.71725 16.4001 5.69004 16.3647 5.65565 16.3647C5.55371 16.3647 5.67644 14.235 5.78525 14.1017C5.89168 13.9717 6.13523 14.0227 6.31654 14.2124C6.41156 14.3118 6.52161 14.4212 6.5616 14.4556C6.69479 14.5705 7.05057 14.9657 7.05057 14.9988C7.05057 15.0177 7.10049 15.088 7.16157 15.1564C7.39072 15.4142 7.42919 15.4672 7.46294 15.5744C7.48108 15.6345 7.54684 15.7283 7.60728 15.7827C7.66771 15.8371 7.717 15.9263 7.717 15.9799C7.717 16.0336 7.7796 16.1523 7.85598 16.2434C7.93237 16.3345 7.99496 16.4226 7.99496 16.4404C7.99496 16.4706 8.34331 17.2493 8.46939 17.4941C8.51387 17.5807 8.55023 17.6933 8.55023 17.7447C8.55023 17.7961 8.60258 17.9751 8.66661 18.1426C8.79349 18.4748 8.86325 18.7554 8.91435 19.141C8.93249 19.2782 8.96968 19.4172 8.99675 19.4501C9.02396 19.4804 9.07494 19.8615 9.10982 20.2917C9.1895 21.2709 9.10784 23.0206 8.96523 23.3478C8.78755 23.7586 8.63282 24.0583 8.54195 24.1676C8.43401 24.2976 8.14333 24.8043 8.01631 25.0839C7.90568 25.3277 7.78659 25.4625 7.59488 25.5616C7.46256 25.63 7.43858 25.6298 7.39379 25.5478ZM56.036 23.3208C55.8235 23.1488 55.9169 23.0105 56.3232 22.8954C57.1161 22.6709 58.391 22.1853 58.6577 22.0061C58.8429 21.8817 59.4316 21.5844 59.4927 21.5844C59.5108 21.5844 59.6593 21.5016 59.8204 21.4003C59.9812 21.299 60.2129 21.1726 60.3351 21.1189C60.6705 20.9719 61.3248 20.6352 61.4101 20.5666C61.4979 20.4956 61.6677 20.3947 61.8623 20.2983C61.9384 20.259 62.0923 20.1593 62.2035 20.0739C62.3148 19.9885 62.4203 19.9186 62.4378 19.9186C62.4559 19.9186 62.6434 19.806 62.856 19.6688C63.0685 19.5316 63.2552 19.419 63.2708 19.419C63.3172 19.419 64.3718 18.6881 64.4724 18.5862C64.5376 18.5204 64.8412 18.3253 64.9305 18.2921C64.984 18.2732 65.0274 18.2321 65.0274 18.2026C65.0274 18.1761 65.0779 18.133 65.1386 18.1138C65.1999 18.0949 65.2499 18.0541 65.2499 18.0243C65.2499 17.9472 65.5295 17.6974 65.6164 17.6974C65.6865 17.6974 66.0621 17.3787 66.4691 16.974C66.8208 16.6243 67.7701 15.5907 67.8174 15.5063C67.8817 15.3922 67.7932 15.2769 67.3766 14.9206C66.75 14.3858 66.4161 14.0701 66.4161 14.0122C66.4161 13.982 66.3599 13.8958 66.2911 13.8233C66.1744 13.6989 66.166 13.6402 66.166 12.9543C66.166 12.3135 66.1811 12.1817 66.2911 11.9317C66.3593 11.7737 66.4688 11.5134 66.5334 11.3531C66.5978 11.1925 66.6736 11.0242 66.7012 10.9785C66.7284 10.9309 66.7863 10.8201 66.829 10.7286C66.9032 10.5699 67.2884 10.1889 67.5122 10.0541C67.6175 9.99063 68.132 9.84213 68.5542 9.75331C68.6763 9.73063 69.0995 9.70493 69.4946 9.70417C70.3094 9.70417 70.8168 9.80583 70.9416 10.002C71.0167 10.1199 71.0844 11.0348 71.0186 11.0348C70.9978 11.0348 70.9702 11.1037 70.9555 11.1879C70.901 11.4884 70.7417 12.0089 70.671 12.1181C70.6317 12.1793 70.5811 12.3032 70.5588 12.3935C70.5346 12.4838 70.4202 12.7635 70.3002 13.015C70.1803 13.2659 70.0819 13.4874 70.0819 13.5061C70.0819 13.525 70.1628 13.5767 70.2623 13.621C70.3615 13.6637 70.4803 13.7267 70.526 13.7561C70.5724 13.7826 70.8342 13.9146 71.1091 14.0431C71.3839 14.1709 71.6215 14.2902 71.6367 14.3072C71.6711 14.3466 72.3075 14.7719 72.3899 14.8108C72.4224 14.8259 72.5785 14.951 72.737 15.0886C72.9748 15.2949 73.025 15.3701 73.025 15.5206C73.025 15.6314 72.9925 15.7158 72.942 15.7347C72.8966 15.7536 72.8589 15.7907 72.8589 15.8205C72.8589 15.847 72.7837 16.0367 72.6923 16.2351C72.6003 16.4327 72.5257 16.6453 72.5257 16.7073C72.5257 16.7689 72.4782 16.8796 72.4208 16.9525C72.3633 17.0258 72.2987 17.1797 72.2774 17.2946C72.1983 17.7201 71.9619 17.8104 71.7105 17.5108C71.5043 17.2647 71.2133 17.0777 70.2488 16.5716C69.9586 16.4193 69.7086 16.2765 69.6934 16.2549C69.6783 16.236 69.5921 16.1976 69.5025 16.1753C69.4126 16.1564 69.2716 16.0875 69.1886 16.0281C69.1055 15.9688 69.0024 15.9204 68.9594 15.9204C68.8286 15.9204 68.5789 16.2289 67.9343 17.1857C67.8374 17.3297 67.6435 17.5622 67.5039 17.7029C67.364 17.8435 67.2498 17.9857 67.2498 18.0201C67.2498 18.0503 67.1629 18.1515 67.0553 18.2369C66.9485 18.3224 66.8607 18.4116 66.8607 18.4346C66.8607 18.4887 65.9038 19.4374 65.5879 19.6969C65.458 19.8039 65.3224 19.9174 65.2869 19.9502C65.2518 19.9805 65.1348 20.0577 65.028 20.117C64.921 20.1767 64.8212 20.2402 64.8058 20.2591C64.7907 20.278 64.693 20.337 64.5887 20.3899C64.4847 20.4428 64.3488 20.5342 64.2867 20.592C64.2254 20.6502 64.1159 20.6972 64.0455 20.6972C63.9742 20.6972 63.9171 20.7199 63.9171 20.7505C63.9171 20.7769 63.7987 20.8713 63.6534 20.9544C63.5085 21.0372 63.3522 21.1337 63.3064 21.1696C63.2609 21.1999 63.0856 21.2898 62.9177 21.3574C62.6155 21.4795 62.492 21.5308 62.1679 21.6684C62.0759 21.7077 61.8889 21.7724 61.7513 21.8132C61.6139 21.856 61.439 21.919 61.3627 21.9583C61.2865 21.9977 61.1988 22.0295 61.1681 22.0299C61.1375 22.0299 60.868 22.1306 60.5694 22.2527C60.1997 22.4043 59.9823 22.464 59.8889 22.4409C59.8038 22.422 59.6622 22.4484 59.5158 22.5168C59.3862 22.5781 59.1425 22.6684 58.9744 22.7175C58.8066 22.7667 58.594 22.8434 58.5024 22.888C58.3087 22.9817 57.9355 23.0835 57.1974 23.2442C56.3308 23.4324 56.1847 23.4406 56.036 23.3208ZM69.4488 13.1005C69.5514 13.0321 69.7484 12.5296 69.7484 12.3347C69.7484 12.1136 69.6104 11.9582 69.4488 11.9972C69.3845 12.0123 69.0884 12.0448 68.7909 12.0641C68.4613 12.0868 68.2267 12.1309 68.1907 12.1743C68.1068 12.2756 68.2149 12.4253 68.4772 12.5776C68.5963 12.646 68.6934 12.726 68.6934 12.7559C68.6934 12.7824 68.7319 12.8101 68.7794 12.8101C68.8269 12.8101 68.9202 12.8629 68.9878 12.9264C69.173 13.1025 69.3466 13.1678 69.4488 13.1005ZM106.835 21.8776C106.624 21.7468 106.53 21.557 106.621 21.4474C106.674 21.3835 106.806 21.3624 107.143 21.362C107.535 21.3619 107.705 21.3227 108.428 21.0868C109.519 20.7266 110.45 20.379 111.046 20.1085C111.142 20.0658 111.274 20.0287 111.338 20.0287C111.402 20.0287 111.455 20.0098 111.455 19.9795C111.455 19.9531 111.52 19.9139 111.6 19.8935C111.68 19.8746 111.86 19.8054 112.002 19.7419C112.144 19.6784 112.347 19.5889 112.454 19.5424C113.11 19.2563 114.616 18.4874 114.677 18.4077C114.729 18.3389 115.123 18.0849 115.178 18.0849C115.208 18.0849 115.231 18.0622 115.231 18.0358C115.231 18.0093 115.288 17.9716 115.356 17.9534C115.426 17.9345 115.569 17.8456 115.676 17.7541C115.969 17.5032 117.001 16.7525 117.053 16.7525C117.077 16.7525 117.172 16.6801 117.262 16.5924C117.352 16.5043 117.571 16.3448 117.747 16.239C118.041 16.0621 118.084 16.051 118.254 16.1096C118.501 16.1942 118.619 16.2987 118.619 16.4314C118.619 16.4915 118.506 16.7748 118.369 17.0612C118.232 17.3476 118.119 17.6033 118.119 17.6296C118.119 17.656 118.044 17.8321 117.953 18.021C117.861 18.2104 117.786 18.3984 117.786 18.439C117.786 18.5248 117.546 18.7783 117.094 19.1684C116.917 19.3215 116.679 19.5337 116.564 19.6409C116.3 19.8881 115.911 20.2092 115.801 20.2725C115.754 20.299 115.656 20.3736 115.582 20.4374C115.421 20.5777 114.819 20.8048 114.605 20.8063C114.411 20.8063 113.27 21.0887 113.232 21.1443C113.217 21.1669 113.11 21.2028 112.996 21.2248C112.881 21.2437 112.788 21.2821 112.788 21.3044C112.788 21.3739 112.326 21.4919 112.107 21.4783C111.988 21.4745 111.899 21.4933 111.899 21.5258C111.899 21.556 111.794 21.586 111.663 21.586C111.534 21.5861 111.352 21.6252 111.261 21.6732C110.993 21.8134 110.392 21.8408 110.095 21.7274C109.918 21.6605 109.748 21.6397 109.524 21.6582C109.192 21.6847 108.502 21.8143 108.139 21.9152C107.8 22.0093 107.01 21.9895 106.835 21.8776ZM30.0968 17.3352C29.8066 17.2335 29.4753 17.1352 29.3606 17.1156C29.0089 17.057 28.9539 16.9087 29.0329 16.2351C29.0913 15.7372 29.2122 15.2302 29.391 14.7349C29.4223 14.6484 29.5062 14.5558 29.5774 14.5282C29.7024 14.4806 29.7743 14.4889 30.0134 14.5857C30.1172 14.6284 30.4189 14.7092 31.0573 14.8683C31.3739 14.948 31.5961 15.1076 31.5961 15.2567C31.5961 15.3161 31.5484 15.4704 31.4903 15.6C31.4319 15.73 31.3315 16.0104 31.2675 16.2242C31.2035 16.4382 31.0982 16.7878 31.0338 17.0016C30.9695 17.2156 30.9081 17.4214 30.8973 17.4598C30.8671 17.566 30.6724 17.537 30.0968 17.3352ZM45.0725 17.4379C45.0518 17.419 45.0355 17.3808 45.0355 17.3567C45.0355 17.3037 45.3233 17.0305 45.3784 17.0305C45.3992 17.0305 45.4875 17.004 45.5732 16.9666C45.6592 16.9363 45.7545 16.8982 45.7852 16.8937C45.8154 16.8899 45.9337 16.8427 46.0471 16.7913C46.1607 16.7398 46.2723 16.6976 46.2952 16.6976C46.3194 16.6976 46.7668 16.4847 47.2923 16.2256C47.8179 15.9663 48.2627 15.7539 48.2809 15.7539C48.3235 15.7539 49.226 15.333 49.4781 15.1951C49.5851 15.1369 49.7487 15.0528 49.842 15.009C49.9978 14.9353 50.4986 14.6296 51.5338 13.9769C51.7518 13.8397 52.0154 13.6767 52.1197 13.6159C52.499 13.3933 53.421 12.7392 53.421 12.6922C53.421 12.6658 53.4554 12.644 53.4983 12.644C53.5409 12.644 53.6718 12.5569 53.7899 12.4507C53.9078 12.3449 54.0239 12.2574 54.0479 12.2562C54.0721 12.2562 54.1787 12.1673 54.2858 12.0604C54.3928 11.9534 54.4999 11.8664 54.5243 11.8664C54.5485 11.8664 54.9766 11.4646 55.4756 10.9734C56.3739 10.0893 56.385 10.0808 56.582 10.1178C56.6917 10.1367 56.8009 10.184 56.8252 10.2195C56.8914 10.3163 56.8343 10.7471 56.7392 10.8553C56.6938 10.9078 56.6433 11.0896 56.6268 11.2599C56.5894 11.6405 56.4398 12.2754 56.3285 12.522C56.2831 12.6229 56.1226 12.7933 55.9719 12.9021C55.8213 13.0099 55.6983 13.1196 55.6983 13.1453C55.6983 13.2042 55.1552 13.755 55.0971 13.755C55.0729 13.755 54.969 13.8423 54.8653 13.9492C54.7618 14.0562 54.6569 14.1432 54.6323 14.1432C54.558 14.1432 54.3656 14.3605 54.3656 14.444C54.3656 14.4867 54.2796 14.5509 54.1758 14.5857C54.0715 14.6159 53.9473 14.7073 53.9002 14.7799C53.8538 14.8525 53.7405 14.9271 53.6502 14.9472C53.5603 14.9661 53.4734 15.0175 53.4575 15.059C53.4424 15.1018 53.3083 15.2019 53.1613 15.2847C53.0142 15.3674 52.7691 15.5182 52.6164 15.6191C52.4634 15.7204 52.221 15.8554 52.0773 15.9193C51.9332 15.9828 51.8006 16.0591 51.7823 16.0886C51.7642 16.115 51.6912 16.1421 51.6202 16.1421C51.5493 16.1421 51.4624 16.1724 51.4268 16.2196C51.3917 16.2623 51.2945 16.3142 51.2118 16.335C51.1292 16.3539 50.9863 16.4044 50.8947 16.4434C50.264 16.714 50.0451 16.7458 48.6178 16.776C48.2207 16.7836 47.8334 16.8187 47.757 16.8512C47.6807 16.8815 47.4684 16.9528 47.285 17.0035C47.1019 17.0545 46.9018 17.1154 46.8407 17.1384C46.2609 17.3599 45.797 17.4734 45.4739 17.4734C45.2736 17.4734 45.0933 17.4581 45.0729 17.4339L45.0725 17.4379ZM20.8365 11.3143C20.7373 11.2524 20.6561 11.1672 20.6561 11.1256C20.6561 11.0228 20.8371 10.8664 20.9555 10.8664C21.1561 10.8664 21.9572 10.5932 22.5307 10.3298C22.7523 10.2281 22.9475 10.1446 22.9646 10.1446C23.0477 10.1446 23.6414 9.84147 24.1516 9.53831C24.4645 9.35236 24.7369 9.20051 24.757 9.20013C24.7778 9.20013 24.9031 9.11187 25.0372 9.00566C25.1713 8.89946 25.3007 8.81189 25.3247 8.81189C25.3489 8.81189 25.4014 8.78172 25.442 8.74015C25.4822 8.70084 25.6401 8.58333 25.7931 8.47901C26.1218 8.25489 26.7427 7.72953 28.1255 6.50459C28.4309 6.23397 28.8626 5.83768 29.0849 5.62384C29.3071 5.40991 29.507 5.22147 29.5291 5.20491C29.6428 5.11987 30.4354 4.14121 30.4927 4.01551C30.5297 3.935 30.5796 3.86994 30.6048 3.86994C30.629 3.86994 30.7248 3.72297 30.8156 3.54306C31.0231 3.13231 31.2358 3.02477 31.4312 3.23303C31.5361 3.3449 31.5485 3.40121 31.5166 3.61596C31.4958 3.75391 31.4553 3.8824 31.4267 3.90016C31.3965 3.91906 31.3743 4.04771 31.3743 4.18944C31.3743 4.43549 31.2026 5.11079 31.0809 5.3424C30.8103 5.85763 30.6752 6.08407 30.5679 6.20308C30.4991 6.27905 30.4263 6.39694 30.4059 6.46422C30.3851 6.53111 30.2841 6.63887 30.1803 6.70274C30.0766 6.76662 29.8893 6.94166 29.7639 7.09122C29.6389 7.24126 29.4876 7.37837 29.4278 7.39803C29.3686 7.41692 29.3196 7.46194 29.3196 7.4986C29.3196 7.58818 28.7454 8.12804 28.6017 8.17359C28.5386 8.19248 28.4866 8.23367 28.4866 8.2624C28.4866 8.28886 28.4367 8.31384 28.3756 8.31384C28.3145 8.31384 28.1185 8.45774 27.94 8.63311C27.3402 9.22347 27.035 9.46781 26.7743 9.56669C26.5299 9.65929 26.3429 9.76436 25.8701 10.0749C25.5555 10.2812 24.5557 10.6429 24.1284 10.7047C23.9152 10.7349 23.7166 10.7851 23.6869 10.8149C23.657 10.8414 23.5784 10.8687 23.5122 10.8687C23.4454 10.8687 23.3008 10.908 23.19 10.9522C22.993 11.0346 22.575 11.1363 21.795 11.292C21.0715 11.4364 21.0293 11.4368 20.8365 11.3143ZM86.8728 8.83934C86.8547 8.79172 86.8085 8.75606 86.7694 8.75606C86.656 8.75606 86.6314 8.61324 86.723 8.48247C86.8228 8.33998 87.243 8.12904 87.6778 8.00311C87.8504 7.95322 88.0166 7.89312 88.0471 7.86931C88.0777 7.84664 88.315 7.75634 88.5746 7.67093C88.8341 7.58551 89.0716 7.49645 89.1022 7.47415C89.1328 7.45525 89.3325 7.36797 89.5464 7.28822C89.7603 7.20847 90.0477 7.09017 90.1851 7.02478C90.3225 6.95977 90.4725 6.88902 90.5183 6.86861C90.8157 6.73368 92.3165 5.93139 92.5453 5.78508C92.698 5.68682 92.9791 5.51449 93.1701 5.40099C93.361 5.28723 93.5172 5.17388 93.5172 5.14932C93.5172 5.12664 93.5734 5.08919 93.6426 5.07181C93.7117 5.05291 93.8677 4.94862 93.9897 4.83674C94.1118 4.72449 94.2987 4.58489 94.4057 4.52555C95.3647 3.99914 98.7373 1.02046 98.7373 0.699883C98.7373 0.669647 98.7996 0.576276 98.8759 0.493882C98.952 0.411489 99.0146 0.322015 99.0146 0.294802C99.0146 0.268345 99.0807 0.184019 99.1607 0.109563C99.2708 0.00751542 99.3426 -0.0166968 99.4524 0.0101378C99.5324 0.0290355 99.6061 0.0695986 99.6163 0.0975671C99.6254 0.124024 99.6716 0.148779 99.7179 0.148779C99.7823 0.148779 99.7931 0.191683 99.7624 0.329635C99.7416 0.429037 99.6993 0.540832 99.6686 0.579005C99.638 0.618312 99.626 0.679806 99.6414 0.719491C99.6831 0.827964 99.5783 1.41883 99.4929 1.55595C99.4512 1.62209 99.403 1.8088 99.3858 1.97049C99.3677 2.13188 99.3028 2.33549 99.2403 2.42332C99.1781 2.51101 99.1267 2.5964 99.1267 2.61341C99.1267 2.6701 98.8756 3.00813 98.6674 3.2321C98.5538 3.35418 98.4606 3.47295 98.4606 3.49601C98.4606 3.51868 98.3151 3.68105 98.1374 3.85679C97.9598 4.03254 97.744 4.2823 97.6578 4.41205C97.5718 4.54245 97.4768 4.64827 97.4473 4.64827C97.386 4.64827 96.9784 4.95638 96.8434 5.10503C96.794 5.15945 96.7312 5.20353 96.7035 5.20353C96.6763 5.20353 96.6295 5.25805 96.5989 5.32533C96.5683 5.39223 96.4816 5.46332 96.405 5.48335C96.3279 5.50225 96.1743 5.60456 96.063 5.7085C95.4713 6.26019 95.1103 6.55667 94.6892 6.83677C94.4324 7.00685 94.2041 7.14704 94.1814 7.14704C94.1572 7.14704 94.127 7.17722 94.1102 7.22409C94.0569 7.36167 92.9471 7.87141 92.5895 7.92191C92.3012 7.96462 91.7199 8.12571 91.379 8.26101C91.3177 8.28369 91.1098 8.3168 90.9167 8.3323C90.7237 8.34741 90.5237 8.39581 90.4725 8.44003C90.4043 8.49936 90.1579 8.53011 89.5537 8.55468C89.0996 8.57357 88.6997 8.61097 88.6651 8.63818C88.6307 8.66464 88.4649 8.70206 88.2968 8.71869C88.129 8.73381 87.8165 8.78811 87.6027 8.83611C87.1155 8.94609 86.9138 8.9463 86.8728 8.83934Z" fill="white"/>
</svg>
